<?xml version="1.0" standalone="no"?>
<!DOCTYPE svg PUBLIC "-//W3C//DTD SVG 20010904//EN"
 "http://www.w3.org/TR/2001/REC-SVG-20010904/DTD/svg10.dtd">
<svg version="1.0" xmlns="http://www.w3.org/2000/svg"
 width="512.000000pt" height="512.000000pt" viewBox="0 0 512.000000 512.000000"
 preserveAspectRatio="xMidYMid meet">
<metadata>
Created by potrace 1.14, written by Peter Selinger 2001-2017
</metadata>
<g transform="translate(0.000000,512.000000) scale(0.100000,-0.100000)"
fill="#000000" stroke="none">
<path d="M190 5111 c-76 -24 -137 -79 -169 -154 l-21 -49 2 -2361 3 -2362 22
-40 c25 -47 74 -95 123 -121 34 -18 113 -19 2410 -19 l2375 0 40 22 c47 25 95
74 121 123 18 34 19 107 22 2050 l2 2015 -452 452 -453 453 -1766 0 -1766 0 0
-107 c-1 -60 -1 -117 -2 -128 -1 -19 -7 -21 -83 -20 l-83 0 -3 128 -3 127
-147 -1 c-81 0 -158 -4 -172 -8z"/>
</g>
</svg>
